<?xml version="1.0" encoding="utf-8"?>
<!-- Generator: Adobe Illustrator 25.2.1, SVG Export Plug-In . SVG Version: 6.00 Build 0)  -->
<svg version="1.1" id="图层_1" xmlns="http://www.w3.org/2000/svg" xmlns:xlink="http://www.w3.org/1999/xlink" x="0px" y="0px"
	 viewBox="0 0 500 500" style="enable-background:new 0 0 500 500;" xml:space="preserve">
<style type="text/css">
	.st0{fill:#00AAFF;}
	.st1{fill:#7D9542;}
	.st2{fill:#93C644;}
	.st3{fill:#617832;}
	.st4{fill:#86BC3D;}
	.st5{fill:#76A030;}
	.st6{fill:#D6E7B1;}
	.st7{fill:#B2B894;}
	.st8{fill:#B5D575;}
	.st9{fill:#B35943;}
	.st10{fill:#ED794D;}
	.st11{fill:#AF4938;}
	.st12{fill:#EB683D;}
	.st13{fill:#4F484E;}
	.st14{fill:#786D78;}
</style>
<rect class="st0" width="500" height="500"/>
<g id="XMLID_27_">
	<path id="XMLID_38_" class="st1" d="M64,304.8l-35.4,52.8c-3.8,5.6-2.9,13.1,2.1,17.7c75.4,70.2,176.2,97.5,271.4,82
		c2.9-28.3,5.9-56.6,8.1-85C224.7,391.8,131.7,369.3,64,304.8z"/>
	<path id="XMLID_46_" class="st2" d="M471.4,357.7L436,304.8c-6.2,5.9-12.6,11.5-19.2,16.7c-32.1,25.3-68.6,42.2-106.6,50.9
		c-2.2,28.4-5.2,56.8-8.1,85c60.8-9.9,119.2-37.2,167.3-82l0,0C474.3,370.8,475.2,363.3,471.4,357.7z"/>
	<path id="XMLID_47_" class="st3" d="M199.1,427.4l-7.9,28.8c11.4,2.1,22.8,3.6,34.3,4.4l-5.3-27L199.1,427.4z"/>
	<path id="XMLID_524_" class="st4" d="M469.4,375.4c-7,6.6-14.3,12.8-21.8,18.6c2.7-4.5,2.7-10.3-0.3-14.8l-35.9-53.5
		c1.8-1.4,3.6-2.7,5.4-4.1c6.6-5.2,13-10.7,19.2-16.7l35.4,52.8C475.2,363.3,474.3,370.8,469.4,375.4L469.4,375.4z"/>
	<path id="XMLID_525_" class="st5" d="M453.8,389c-8.5,6.9-17.2,13.4-26.2,19.3l-10.1-29.4c0,0-27.5-30.8-27.1-31.7l20.6-22.3
		L453.8,389z"/>
	<path id="XMLID_526_" class="st3" d="M124.4,347.3l-47.1,64.2c-7.9-5-15.6-10.4-23.1-16.2l37.4-72.7L124.4,347.3z"/>
	<path id="XMLID_527_" class="st5" d="M390.4,429.5c-9.1,4.4-18.3,8.3-27.7,11.8l-32.1-76.1l32-18L390.4,429.5z"/>
	<path id="XMLID_48_" class="st3" d="M298.1,372.5l-57.2,11.7l3.6,43.2l26.6,8.1L282,460c6.7-0.7,13.4-1.5,20.1-2.6
		c1.8-18.1,3.7-36.1,5.4-54.3L298.1,372.5z"/>
	<path id="XMLID_49_" class="st5" d="M307.5,403.1c-1.7,18.1-3.6,36.2-5.4,54.3c7-1.1,13.9-2.5,20.8-4.1L307.5,403.1z"/>
	<path id="XMLID_529_" class="st3" d="M193.7,373.4L160.5,449c-16.4-4.7-32.5-10.8-48.1-18.2l62.9-62.9L193.7,373.4z"/>
	<path id="XMLID_50_" class="st6" d="M440.9,312.2L419,279.5c-6.1,5.8-12.4,11.2-19,16.2c-26.7,20.5-56.5,34.8-87.7,42.9
		c-0.8,15.4-1.9,30.7-3.2,46.1c38.4-8.6,75.3-25.6,107.7-51.1C425.2,327.1,433.2,319.9,440.9,312.2z"/>
	<path id="XMLID_51_" class="st7" d="M81,279.5l-21.9,32.6c67.9,67.9,162.9,92,250.1,72.6c1.3-15.4,2.4-30.7,3.2-46.1
		C232.7,359.4,144.7,339.7,81,279.5z"/>
	<path id="XMLID_52_" class="st8" d="M440.9,312.2L261.4,44.5c-5.4-8.1-17.4-8.1-22.9,0l-0.3,0.4c22.9,32.9,44.9,66.2,56.6,105.4
		c0.3,1,0.6,2,0.8,2.9l121,180.4C425.2,327.1,433.2,319.9,440.9,312.2z"/>
	<path id="XMLID_53_" class="st8" d="M238.3,44.9l-10.2,15.2c3.5,0.6,6.9,2.5,9.1,5.9l58.5,87.3c-0.3-1-0.5-2-0.8-2.9
		C283.3,111,261.2,77.8,238.3,44.9z"/>
	<path id="XMLID_54_" class="st9" d="M295,150.3c-11.7-39.3-33.7-72.5-56.6-105.4l-10.2,15.2L75.7,287.4
		c63.9,63.9,154.3,85.4,235.9,64.4C315.8,284.5,314.4,217.1,295,150.3z"/>
	<path id="XMLID_55_" class="st10" d="M424.3,287.4L261.4,44.5c-5.4-8.1-17.4-8.1-22.9,0l-0.3,0.4c22.9,32.9,44.9,66.2,56.6,105.4
		c19.5,66.8,20.9,134.2,16.6,201.5c31.4-8.1,61.6-22.4,88.5-43.1C408.5,302.2,416.6,295.1,424.3,287.4z"/>
	<path id="XMLID_56_" class="st11" d="M238.3,44.9l-10.2,15.2c3.5,0.6,6.9,2.5,9.1,5.9l58.5,87.3c-0.3-1-0.5-2-0.8-2.9
		C283.3,111,261.2,77.8,238.3,44.9z"/>
	<path id="XMLID_57_" class="st12" d="M424.3,287.4L261.4,44.5c-5.4-8.1-17.4-8.1-22.9,0l-0.3,0.4c22.9,32.9,44.9,66.2,56.6,105.4
		c0.3,1,0.6,2,0.8,2.9l104.3,155.5C408.5,302.2,416.6,295.1,424.3,287.4z"/>
	<path id="XMLID_537_" class="st13" d="M213.2,209.4c0,4.3-1.7,8.3-4.5,11.6c-3.5,4-9.9,4-13.4,0c-2.9-3.3-4.5-7.3-4.5-11.6
		c0-4.3,1.7-8.3,4.5-11.6c3.5-4,9.9-4,13.4,0C211.5,201.1,213.2,205.1,213.2,209.4L213.2,209.4z"/>
	<path id="XMLID_58_" class="st13" d="M304.7,197.8c-3.5-4-9.9-4-13.4,0c-2.9,3.3-4.5,7.3-4.5,11.6c0,4.3,1.7,8.3,4.5,11.6
		c3.5,4,9.9,4,13.4,0c1.7-2,3-4.2,3.8-6.6c-0.7-4.9-1.4-9.7-2.2-14.6C305.8,199.1,305.3,198.4,304.7,197.8z"/>
	<path id="XMLID_59_" class="st14" d="M306.2,199.8c0.8,4.9,1.6,9.7,2.2,14.6c0.5-1.6,0.8-3.3,0.8-5
		C309.3,205.9,308.2,202.6,306.2,199.8z"/>
	<path id="XMLID_60_" class="st13" d="M243.3,133.8c-2.9,3.3-4.5,7.3-4.5,11.6c0,4.3,1.7,8.3,4.5,11.6c3.5,4,9.9,4,13.4,0
		c2.9-3.3,4.5-7.3,4.5-11.6c0-4.3-1.7-8.3-4.5-11.6C253.2,129.8,246.8,129.8,243.3,133.8z"/>
	<path id="XMLID_545_" class="st13" d="M165.2,273.3c0,4.3-1.7,8.3-4.5,11.6c-3.5,4-9.9,4-13.4,0c-2.9-3.3-4.5-7.3-4.5-11.6
		c0-4.3,1.7-8.3,4.5-11.6c3.5-4,9.9-4,13.4,0C163.5,265,165.2,269,165.2,273.3z"/>
	<path id="XMLID_61_" class="st13" d="M243.3,261.7c-2.9,3.3-4.5,7.3-4.5,11.6c0,4.3,1.7,8.3,4.5,11.6c3.5,4,9.9,4,13.4,0
		c2.9-3.3,4.5-7.3,4.5-11.6c0-4.3-1.7-8.3-4.5-11.6C253.2,257.7,246.8,257.7,243.3,261.7z"/>
	<path id="XMLID_550_" class="st14" d="M357.3,273.3c0,4.3-1.7,8.3-4.5,11.6c-3.5,4-9.9,4-13.4,0c-2.9-3.3-4.5-7.3-4.5-11.6
		c0-4.3,1.7-8.3,4.5-11.6c3.5-4,9.9-4,13.4,0C355.6,265,357.3,269,357.3,273.3L357.3,273.3z"/>
</g>
</svg>
