<?xml version="1.0" encoding="utf-8"?>
<!-- Generator: Adobe Illustrator 25.2.1, SVG Export Plug-In . SVG Version: 6.00 Build 0)  -->
<svg version="1.1" id="图层_1" xmlns="http://www.w3.org/2000/svg" xmlns:xlink="http://www.w3.org/1999/xlink" x="0px" y="0px"
	 viewBox="0 0 800 800" style="enable-background:new 0 0 800 800;" xml:space="preserve">
<style type="text/css">
	.st0{fill:#00AAFF;}
	.st1{fill:#7D9542;}
	.st2{fill:#93C644;}
	.st3{fill:#617832;}
	.st4{fill:#86BC3D;}
	.st5{fill:#76A030;}
	.st6{fill:#D6E7B1;}
	.st7{fill:#B2B894;}
	.st8{fill:#B5D575;}
	.st9{fill:#B35943;}
	.st10{fill:#ED794D;}
	.st11{fill:#AF4938;}
	.st12{fill:#EB683D;}
	.st13{fill:#4F484E;}
	.st14{fill:#786D78;}
</style>
<rect class="st0" width="800" height="800"/>
<g id="XMLID_27_">
	<path id="XMLID_38_" class="st1" d="M192.2,457.1l-39.6,59c-4.2,6.3-3.2,14.7,2.3,19.8c84.2,78.4,196.9,108.9,303.3,91.6
		c3.2-31.6,6.6-63.3,9-95C371.8,554.3,267.9,529.1,192.2,457.1z"/>
	<path id="XMLID_46_" class="st2" d="M647.5,516.1l-39.6-59c-6.9,6.6-14.1,12.8-21.5,18.6c-35.9,28.2-76.7,47.2-119.2,56.9
		c-2.5,31.7-5.8,63.4-9,95c67.9-11.1,133.2-41.6,187-91.6l0,0C650.7,530.8,651.7,522.4,647.5,516.1z"/>
	<path id="XMLID_47_" class="st3" d="M343.2,594.1l-8.9,32.2c12.7,2.3,25.5,4,38.4,5l-5.9-30.2L343.2,594.1z"/>
	<path id="XMLID_524_" class="st4" d="M645.2,536c-7.9,7.3-16,14.3-24.4,20.7c3.1-5,3.1-11.5-0.4-16.6l-40.1-59.8c2-1.5,4-3,6-4.6
		c7.4-5.8,14.5-12,21.5-18.6l39.6,59C651.7,522.4,650.7,530.8,645.2,536L645.2,536z"/>
	<path id="XMLID_525_" class="st5" d="M627.7,551.2c-9.5,7.7-19.2,14.9-29.2,21.6l-11.3-32.8c0,0-30.7-34.4-30.3-35.4l23-24.9
		L627.7,551.2z"/>
	<path id="XMLID_526_" class="st3" d="M259.7,504.5L207,576.3c-8.8-5.6-17.4-11.6-25.9-18.1l41.8-81.3L259.7,504.5z"/>
	<path id="XMLID_527_" class="st5" d="M556.9,596.4c-10.2,4.9-20.5,9.3-31,13.2l-35.9-85l35.7-20.1L556.9,596.4z"/>
	<path id="XMLID_48_" class="st3" d="M453.7,532.7l-63.9,13.1l4,48.3l29.7,9.1l12.2,27.4c7.5-0.7,15-1.7,22.4-2.9
		c2-20.2,4.1-40.4,6.1-60.6L453.7,532.7z"/>
	<path id="XMLID_49_" class="st5" d="M464.3,567c-1.9,20.2-4,40.5-6.1,60.6c7.8-1.3,15.5-2.8,23.3-4.6L464.3,567z"/>
	<path id="XMLID_529_" class="st3" d="M337.1,533.7l-37,84.5c-18.3-5.3-36.3-12-53.8-20.3l70.3-70.3L337.1,533.7z"/>
	<path id="XMLID_50_" class="st6" d="M613.4,465.3l-24.5-36.5c-6.8,6.4-13.9,12.5-21.2,18.1c-29.8,22.9-63.2,38.9-98,48
		c-0.9,17.2-2.1,34.3-3.6,51.5c42.9-9.6,84.1-28.6,120.3-57.1C595.8,482,604.8,474,613.4,465.3z"/>
	<path id="XMLID_51_" class="st7" d="M211.1,428.9l-24.5,36.5c75.8,75.8,182,102.8,279.4,81.1c1.5-17.2,2.7-34.3,3.6-51.5
		C380.7,518.1,282.4,496.1,211.1,428.9z"/>
	<path id="XMLID_52_" class="st8" d="M613.4,465.3L412.8,166.2c-6.1-9.1-19.4-9.1-25.5,0l-0.3,0.4c25.6,36.7,50.2,73.9,63.3,117.8
		c0.3,1.1,0.6,2.2,0.9,3.3l135.2,201.6C595.8,482,604.8,474,613.4,465.3z"/>
	<path id="XMLID_53_" class="st8" d="M387,166.6l-11.4,17c4,0.6,7.7,2.8,10.2,6.6l65.4,97.5c-0.3-1.1-0.6-2.2-0.9-3.3
		C437.2,240.6,412.6,203.4,387,166.6z"/>
	<path id="XMLID_54_" class="st9" d="M450.3,284.4c-13.1-43.9-37.7-81.1-63.3-117.8l-11.4,17L205.2,437.6
		c71.4,71.4,172.4,95.4,263.6,72C473.6,434.4,472,359.1,450.3,284.4z"/>
	<path id="XMLID_55_" class="st10" d="M594.8,437.6l-182-271.5c-6.1-9.1-19.4-9.1-25.5,0l-0.3,0.4c25.6,36.7,50.2,73.9,63.3,117.8
		c21.7,74.6,23.3,150,18.6,225.2c35.1-9,68.8-25.1,98.9-48.2C577.2,454.2,586.2,446.3,594.8,437.6z"/>
	<path id="XMLID_56_" class="st11" d="M387,166.6l-11.4,17c4,0.6,7.7,2.8,10.2,6.6l65.4,97.5c-0.3-1.1-0.6-2.2-0.9-3.3
		C437.2,240.6,412.6,203.4,387,166.6z"/>
	<path id="XMLID_57_" class="st12" d="M594.8,437.6l-182-271.5c-6.1-9.1-19.4-9.1-25.5,0l-0.3,0.4c25.6,36.7,50.2,73.9,63.3,117.8
		c0.3,1.1,0.6,2.2,0.9,3.3l116.5,173.8C577.2,454.2,586.2,446.3,594.8,437.6z"/>
	<path id="XMLID_537_" class="st13" d="M358.9,350.4c0,4.8-1.9,9.3-5.1,12.9c-3.9,4.5-11,4.5-15,0c-3.2-3.6-5.1-8.1-5.1-12.9
		c0-4.8,1.9-9.3,5.1-12.9c3.9-4.5,11-4.5,15,0C357.1,341.1,358.9,345.6,358.9,350.4L358.9,350.4z"/>
	<path id="XMLID_58_" class="st13" d="M461.2,337.5c-3.9-4.5-11-4.5-15,0c-3.2,3.6-5.1,8.1-5.1,12.9c0,4.8,1.9,9.3,5.1,12.9
		c3.9,4.5,11,4.5,15,0c1.9-2.2,3.3-4.7,4.2-7.3c-0.7-5.4-1.6-10.9-2.5-16.3C462.4,339,461.8,338.2,461.2,337.5z"/>
	<path id="XMLID_59_" class="st14" d="M462.9,339.7c0.9,5.4,1.7,10.9,2.5,16.3c0.6-1.8,0.9-3.7,0.9-5.6
		C466.3,346.5,465,342.9,462.9,339.7z"/>
	<path id="XMLID_60_" class="st13" d="M392.6,266c-3.2,3.6-5.1,8.1-5.1,12.9c0,4.8,1.9,9.3,5.1,12.9c3.9,4.5,11,4.5,15,0
		c3.2-3.6,5.1-8.1,5.1-12.9c0-4.8-1.9-9.3-5.1-12.9C403.6,261.6,396.5,261.6,392.6,266z"/>
	<path id="XMLID_545_" class="st13" d="M305.3,421.9c0,4.8-1.9,9.3-5.1,12.9c-3.9,4.5-11,4.5-15,0c-3.2-3.6-5.1-8.1-5.1-12.9
		c0-4.8,1.9-9.3,5.1-12.9c3.9-4.5,11-4.5,15,0C303.4,412.6,305.3,417.1,305.3,421.9z"/>
	<path id="XMLID_61_" class="st13" d="M392.6,409c-3.2,3.6-5.1,8.1-5.1,12.9c0,4.8,1.9,9.3,5.1,12.9c3.9,4.5,11,4.5,15,0
		c3.2-3.6,5.1-8.1,5.1-12.9c0-4.8-1.9-9.3-5.1-12.9C403.6,404.5,396.5,404.5,392.6,409z"/>
	<path id="XMLID_550_" class="st14" d="M519.9,421.9c0,4.8-1.9,9.3-5.1,12.9c-3.9,4.5-11,4.5-15,0c-3.2-3.6-5.1-8.1-5.1-12.9
		c0-4.8,1.9-9.3,5.1-12.9c3.9-4.5,11-4.5,15,0C518,412.6,519.9,417.1,519.9,421.9L519.9,421.9z"/>
</g>
</svg>
